<svg width="372" height="382" viewBox="0 0 372 382" fill="none" xmlns="http://www.w3.org/2000/svg">
<path fill-rule="evenodd" clip-rule="evenodd" d="M372 238.327V263.681L166.989 382L0 287.345V120.009L202.909 0L372 96.3451L166.989 214.664L21.9818 133.531V163.956L166.989 246.779L372 126.77V152.124L166.989 272.133L21.9818 189.31V219.735L166.989 302.558L372 182.549V207.903L166.989 327.912L21.9818 243.398V272.133L166.989 356.646L372 238.327ZM192.763 38.8761L172.472 52.3982L282.381 116.628L300.981 103.106L192.763 38.8761ZM131.891 76.0619L152.182 62.5398L260.4 126.77L241.8 140.292L131.891 76.0619Z" fill="#B2ECF2"/>
</svg>
